<?xml version="1.0" encoding="UTF-8" standalone="no"?>
<!DOCTYPE svg PUBLIC "-//W3C//DTD SVG 1.1//EN" "http://www.w3.org/Graphics/SVG/1.1/DTD/svg11.dtd">
<svg version="1.1" xmlns="http://www.w3.org/2000/svg" xmlns:xlink="http://www.w3.org/1999/xlink" preserveAspectRatio="xMidYMid meet" viewBox="0 0 672 432" width="672" height="432"><defs><path d="M18.52 393.57C18.13 393.57 17.89 393.7 17.89 394.19C17.89 394.7 17.89 397.2 17.89 401.71C15.14 397.27 13.61 394.8 13.3 394.3C13.02 393.87 12.87 393.57 12.32 393.57C12.12 393.57 10.49 393.57 10.29 393.57C9.79 393.57 9.66 393.81 9.66 394.19C9.66 395.49 9.66 405.89 9.66 407.19C9.66 407.69 9.9 407.82 10.29 407.82C10.5 407.82 12.22 407.82 12.43 407.82C12.82 407.82 13.06 407.69 13.06 407.19C13.06 406.69 13.06 404.18 13.06 399.65C15.82 404.11 17.35 406.59 17.65 407.08C17.94 407.52 18.09 407.82 18.63 407.82C18.83 407.82 20.4 407.82 20.6 407.82C21.1 407.82 21.23 407.58 21.23 407.19C21.23 405.89 21.23 395.5 21.23 394.2C21.23 393.7 20.99 393.57 20.6 393.57C20.6 393.57 18.73 393.57 18.52 393.57Z" id="dr1Zm2F61"></path><path d="M45.04 404.85L45.04 396.58C45.82 396.58 46.26 396.58 46.34 396.58C46.84 396.58 46.97 396.34 46.97 395.95C46.97 395.77 46.97 394.37 46.97 394.19C46.97 393.81 46.84 393.57 46.34 393.57C45.74 393.57 40.92 393.57 40.32 393.57C39.82 393.57 39.69 393.81 39.69 394.19C39.69 394.37 39.69 395.77 39.69 395.95C39.69 396.34 39.82 396.58 40.32 396.58C40.41 396.58 40.85 396.58 41.64 396.58L41.64 404.85C40.82 404.85 40.37 404.85 40.28 404.85C39.78 404.85 39.65 405.09 39.65 405.48C39.65 405.65 39.65 407.02 39.65 407.19C39.65 407.58 39.78 407.82 40.28 407.82C40.89 407.82 45.79 407.82 46.41 407.82C46.91 407.82 47.03 407.58 47.03 407.19C47.03 407.02 47.03 405.65 47.03 405.48C47.03 405.09 46.91 404.85 46.41 404.85C46.22 404.85 45.77 404.85 45.04 404.85Z" id="d2cJks4gpP"></path><path d="M66 393.57C65.5 393.57 65.37 393.81 65.37 394.19C65.37 395.49 65.37 405.89 65.37 407.19C65.37 407.58 65.5 407.82 66 407.82C66.22 407.82 67.93 407.82 68.15 407.82C68.64 407.82 68.77 407.73 68.77 407.17C68.77 406.83 68.77 405.14 68.77 402.1C72.15 402.1 74.03 402.1 74.41 402.1C74.91 402.1 75.04 401.86 75.04 401.47C75.04 401.3 75.04 399.93 75.04 399.76C75.04 399.37 74.91 399.13 74.41 399.13C74.03 399.13 72.15 399.13 68.77 399.13L68.77 396.6C72.7 396.6 74.88 396.6 75.32 396.6C75.82 396.6 75.94 396.36 75.94 395.97C75.94 395.79 75.94 394.37 75.94 394.19C75.94 393.81 75.82 393.57 75.32 393.57C73.45 393.57 66.93 393.57 66 393.57Z" id="akltcSDMi"></path><path d="M93.95 393.57C93.45 393.57 93.32 393.81 93.32 394.19C93.32 394.37 93.32 395.81 93.32 395.99C93.32 396.38 93.45 396.62 93.95 396.62C94.17 396.62 95.28 396.62 97.28 396.62C97.28 402.96 97.28 406.49 97.28 407.19C97.28 407.69 97.52 407.82 97.91 407.82C98.13 407.82 99.84 407.82 100.06 407.82C100.45 407.82 100.69 407.69 100.69 407.19C100.69 406.49 100.69 402.96 100.69 396.62C102.67 396.62 103.78 396.62 104 396.62C104.5 396.62 104.63 396.38 104.63 395.99C104.63 395.81 104.63 394.37 104.63 394.19C104.63 393.81 104.5 393.57 104 393.57C101.99 393.57 94.95 393.57 93.95 393.57Z" id="a2V6HQucG1"></path><path d="M131.52 393.57C131.02 393.57 130.8 393.63 130.52 394.22C130.36 394.53 129.54 396.08 128.07 398.87C126.55 396.08 125.71 394.53 125.54 394.22C125.24 393.63 125.02 393.57 124.52 393.57C124.27 393.57 122.28 393.57 122.03 393.57C121.62 393.57 121.58 393.94 121.68 394.17C121.99 394.73 123.54 397.49 126.32 402.47C126.32 405.3 126.32 406.88 126.32 407.19C126.32 407.69 126.54 407.82 126.95 407.82C127.17 407.82 128.9 407.82 129.11 407.82C129.5 407.82 129.74 407.69 129.74 407.19C129.74 406.88 129.74 405.3 129.74 402.47C132.42 397.49 133.91 394.73 134.21 394.17C134.31 393.94 134.27 393.57 133.86 393.57C133.39 393.57 131.75 393.57 131.52 393.57Z" id="b5kHuxGuhs"></path><path d="M179.2 402.69C180.54 402.23 182.21 400.65 182.21 398.38C182.21 396.99 181.76 395.75 180.95 394.97C180.04 394.07 179 393.59 176.64 393.59C176.1 393.59 171.73 393.59 171.18 393.59C170.69 393.59 170.58 393.83 170.58 394.22C170.58 395.51 170.58 405.9 170.58 407.19C170.58 407.69 170.79 407.82 171.18 407.82C171.4 407.82 173.11 407.82 173.33 407.82C173.72 407.82 173.96 407.69 173.96 407.19C173.96 406.49 173.96 402.96 173.96 396.62C175.68 396.62 176.64 396.62 176.84 396.62C177.96 396.62 178.83 397.34 178.83 398.46C178.83 399.48 177.83 400.22 176.77 400.22C176.73 400.22 176.38 400.22 176.34 400.22C175.84 400.22 175.71 400.45 175.71 400.85C175.71 401.02 175.71 402.41 175.71 402.58C175.71 403.19 175.75 403.42 175.95 403.68C176.18 404.03 178.05 406.82 178.29 407.17C178.59 407.63 178.85 407.82 179.37 407.82C179.63 407.82 181.67 407.82 181.93 407.82C182.34 407.82 182.45 407.43 182.25 407.13C182.25 407.13 179.5 403.13 179.2 402.69Z" id="fP2ryJ8R"></path><path d="M205.49 404.79L205.49 401.93C208.98 401.93 210.91 401.93 211.3 401.93C211.8 401.93 211.93 401.69 211.93 401.3C211.93 401.13 211.93 399.78 211.93 399.61C211.93 399.22 211.8 398.98 211.3 398.98C210.91 398.98 208.98 398.98 205.49 398.98L205.49 396.62C209.42 396.62 211.6 396.62 212.04 396.62C212.53 396.62 212.66 396.38 212.66 395.99C212.66 395.81 212.66 394.37 212.66 394.19C212.66 393.81 212.53 393.57 212.04 393.57C211.1 393.57 203.63 393.57 202.7 393.57C202.2 393.57 202.07 393.81 202.07 394.19C202.07 395.49 202.07 405.89 202.07 407.19C202.07 407.58 202.2 407.82 202.7 407.82C203.67 407.82 211.43 407.82 212.4 407.82C212.9 407.82 213.03 407.58 213.03 407.19C213.03 407.02 213.03 405.59 213.03 405.42C213.03 405.03 212.9 404.79 212.4 404.79C211.48 404.79 209.18 404.79 205.49 404.79Z" id="cbb4GzAIG"></path><path d="M239.93 394.24C239.74 393.78 239.52 393.57 239.04 393.57C238.84 393.57 237.17 393.57 236.96 393.57C236.49 393.57 236.25 393.78 236.08 394.24C235.6 395.54 231.75 405.92 231.27 407.22C231.16 407.47 231.16 407.82 231.63 407.82C231.86 407.82 233.68 407.82 233.91 407.82C234.39 407.82 234.56 407.69 234.73 407.17C234.77 407.06 234.98 406.49 235.34 405.46L240.65 405.46C241.01 406.49 241.21 407.06 241.25 407.17C241.43 407.69 241.6 407.82 242.08 407.82C242.3 407.82 244.12 407.82 244.35 407.82C244.83 407.82 244.83 407.47 244.72 407.22C243.76 404.62 240.41 395.54 239.93 394.24ZM236.38 402.43L238 397.64L239.63 402.43L236.38 402.43Z" id="a2Y7omtHY2"></path><path d="M273.97 402.86C273.76 402.86 272.07 402.86 271.85 402.86C271.38 402.86 271.33 403.21 271.27 403.64C271.09 404.68 270.16 405.11 268.99 405.11C267.56 405.11 266.59 404.34 266.59 402.95C266.59 402.5 266.59 398.89 266.59 398.44C266.59 397.08 267.56 396.27 268.99 396.27C270.16 396.27 270.77 396.6 271.23 397.32C271.4 397.57 271.42 397.99 271.88 397.99C272.08 397.99 273.75 397.99 273.95 397.99C274.45 397.99 274.62 397.88 274.62 397.36C274.34 394.61 271.68 393.24 268.99 393.24C266.42 393.24 263.19 394.74 263.19 398.14C263.19 398.65 263.19 402.74 263.19 403.25C263.19 406.65 266.42 408.15 268.99 408.15C271.68 408.15 274.62 406.39 274.62 403.6C274.63 403.08 274.45 402.86 273.97 402.86Z" id="b1Vo3Qoy5d"></path><path d="M293.32 393.57C292.82 393.57 292.69 393.81 292.69 394.19C292.69 394.37 292.69 395.81 292.69 395.99C292.69 396.38 292.82 396.62 293.32 396.62C293.55 396.62 294.66 396.62 296.66 396.62C296.66 402.96 296.66 406.49 296.66 407.19C296.66 407.69 296.9 407.82 297.29 407.82C297.5 407.82 299.22 407.82 299.43 407.82C299.82 407.82 300.06 407.69 300.06 407.19C300.06 406.49 300.06 402.96 300.06 396.62C302.05 396.62 303.15 396.62 303.37 396.62C303.87 396.62 304 396.38 304 395.99C304 395.81 304 394.37 304 394.19C304 393.81 303.87 393.57 303.37 393.57C303.37 393.57 294.33 393.57 293.32 393.57Z" id="aejvifG8F"></path><path d="M350.35 402.86C350.14 402.86 348.44 402.86 348.22 402.86C347.75 402.86 347.71 403.21 347.64 403.64C347.47 404.68 346.54 405.11 345.37 405.11C343.94 405.11 342.96 404.34 342.96 402.95C342.96 402.5 342.96 398.89 342.96 398.44C342.96 397.08 343.94 396.27 345.37 396.27C346.54 396.27 347.14 396.6 347.6 397.32C347.77 397.57 347.79 397.99 348.25 397.99C348.46 397.99 350.12 397.99 350.33 397.99C350.83 397.99 351 397.88 351 397.36C350.72 394.61 348.05 393.24 345.37 393.24C342.79 393.24 339.56 394.74 339.56 398.14C339.56 398.65 339.56 402.74 339.56 403.25C339.56 406.65 342.79 408.15 345.37 408.15C348.05 408.15 351 406.39 351 403.6C351 403.08 350.83 402.86 350.35 402.86Z" id="e1G4YMD7w"></path><path d="M381.84 398.14C381.84 394.72 378.59 393.24 376.01 393.24C373.43 393.24 370.22 394.72 370.22 398.14C370.22 398.65 370.22 402.74 370.22 403.25C370.22 406.67 373.43 408.15 376.01 408.15C378.59 408.15 381.84 406.67 381.84 403.25C381.84 402.23 381.84 399.16 381.84 398.14ZM378.43 402.95C378.43 404.33 377.44 405.14 376.01 405.14C374.6 405.14 373.6 404.33 373.6 402.95C373.6 402.5 373.6 398.89 373.6 398.44C373.6 397.05 374.6 396.25 376.01 396.25C377.44 396.25 378.43 397.05 378.43 398.44C378.43 399.34 378.43 402.05 378.43 402.95Z" id="e6ITRFRTE"></path><path d="M413.23 393.54C412.51 393.54 412.41 394.02 412.25 394.28C412.05 394.64 411.06 396.41 409.27 399.61C407.48 396.41 406.49 394.64 406.3 394.28C406.12 394.02 406.04 393.54 405.3 393.54C405.09 393.54 403.37 393.54 403.16 393.54C402.66 393.54 402.53 393.78 402.53 394.17C402.53 395.47 402.53 405.89 402.53 407.19C402.53 407.69 402.77 407.82 403.16 407.82C403.37 407.82 405.09 407.82 405.3 407.82C405.69 407.82 405.93 407.69 405.93 407.19C405.93 406.7 405.93 404.26 405.93 399.85C407.24 402.12 407.97 403.39 408.12 403.64C408.22 403.81 408.4 404.09 408.72 404.09C408.83 404.09 409.7 404.09 409.81 404.09C410.13 404.09 410.33 403.81 410.43 403.64C410.58 403.39 411.3 402.12 412.6 399.85C412.6 404.26 412.6 406.7 412.6 407.19C412.6 407.69 412.84 407.82 413.23 407.82C413.44 407.82 415.1 407.82 415.31 407.82C415.7 407.82 415.94 407.69 415.94 407.19C415.94 405.89 415.94 395.47 415.94 394.17C415.94 393.78 415.81 393.54 415.31 393.54C414.89 393.54 413.44 393.54 413.23 393.54Z" id="aMsbZZqxu"></path><path d="M437.84 393.57C437.34 393.57 437.21 393.81 437.21 394.19C437.21 395.49 437.21 405.89 437.21 407.19C437.21 407.69 437.45 407.82 437.84 407.82C438.05 407.82 439.77 407.82 439.98 407.82C440.37 407.82 440.61 407.69 440.61 407.19C440.61 406.95 440.61 405.75 440.61 403.6C441.86 403.6 442.55 403.6 442.69 403.6C446.39 403.6 448.39 401.61 448.39 398.59C448.39 395.6 446.44 393.57 442.71 393.57C441.74 393.57 438.33 393.57 437.84 393.57ZM440.61 400.67L440.61 396.62C441.86 396.62 442.55 396.62 442.69 396.62C444.38 396.62 445.11 397.53 445.11 398.66C445.11 399.74 444.38 400.67 442.69 400.67C442.41 400.67 441.72 400.67 440.61 400.67Z" id="a20yW7gqrr"></path><path d="M478.66 398.14C478.66 394.72 475.41 393.24 472.84 393.24C470.26 393.24 467.05 394.72 467.05 398.14C467.05 398.65 467.05 402.74 467.05 403.25C467.05 406.67 470.26 408.15 472.84 408.15C475.41 408.15 478.67 406.67 478.67 403.25C478.67 402.23 478.66 399.16 478.66 398.14ZM475.26 402.95C475.26 404.33 474.27 405.14 472.84 405.14C471.43 405.14 470.43 404.33 470.43 402.95C470.43 402.5 470.43 398.89 470.43 398.44C470.43 397.05 471.43 396.25 472.84 396.25C474.27 396.25 475.26 397.05 475.26 398.44C475.26 399.34 475.26 402.05 475.26 402.95Z" id="e2Qmmi8Em"></path><path d="M507.59 393.57C507.2 393.57 506.96 393.7 506.96 394.19C506.96 394.7 506.96 397.2 506.96 401.71C504.21 397.27 502.68 394.8 502.37 394.3C502.09 393.87 501.94 393.57 501.4 393.57C501.19 393.57 499.57 393.57 499.36 393.57C498.86 393.57 498.73 393.81 498.73 394.19C498.73 395.49 498.73 405.89 498.73 407.19C498.73 407.69 498.97 407.82 499.36 407.82C499.58 407.82 501.29 407.82 501.51 407.82C501.9 407.82 502.13 407.69 502.13 407.19C502.13 406.69 502.13 404.18 502.13 399.65C504.89 404.11 506.42 406.59 506.73 407.08C507.01 407.52 507.16 407.82 507.7 407.82C507.9 407.82 509.48 407.82 509.67 407.82C510.17 407.82 510.3 407.58 510.3 407.19C510.3 405.89 510.3 395.5 510.3 394.2C510.3 393.7 510.06 393.57 509.67 393.57C509.26 393.57 507.8 393.57 507.59 393.57Z" id="b61kf7P7v"></path><path d="M534.3 404.79L534.3 401.93C537.78 401.93 539.72 401.93 540.1 401.93C540.6 401.93 540.73 401.69 540.73 401.3C540.73 401.13 540.73 399.78 540.73 399.61C540.73 399.22 540.6 398.98 540.1 398.98C539.72 398.98 537.78 398.98 534.3 398.98L534.3 396.62C538.22 396.62 540.41 396.62 540.84 396.62C541.34 396.62 541.47 396.38 541.47 395.99C541.47 395.81 541.47 394.37 541.47 394.19C541.47 393.81 541.34 393.57 540.84 393.57C539.91 393.57 532.44 393.57 531.5 393.57C531.01 393.57 530.88 393.81 530.88 394.19C530.88 395.49 530.88 405.89 530.88 407.19C530.88 407.58 531.01 407.82 531.5 407.82C532.47 407.82 540.24 407.82 541.21 407.82C541.71 407.82 541.84 407.58 541.84 407.19C541.84 407.02 541.84 405.59 541.84 405.42C541.84 405.03 541.71 404.79 541.21 404.79C540.29 404.79 537.99 404.79 534.3 404.79Z" id="a1WKrcX9FW"></path><path d="M570.29 393.57C569.9 393.57 569.66 393.7 569.66 394.19C569.66 394.7 569.66 397.2 569.66 401.71C566.91 397.27 565.38 394.8 565.07 394.3C564.79 393.87 564.64 393.57 564.1 393.57C563.89 393.57 562.26 393.57 562.06 393.57C561.56 393.57 561.43 393.81 561.43 394.19C561.43 395.49 561.43 405.89 561.43 407.19C561.43 407.69 561.67 407.82 562.06 407.82C562.28 407.82 563.99 407.82 564.21 407.82C564.59 407.82 564.83 407.69 564.83 407.19C564.83 406.69 564.83 404.18 564.83 399.65C567.59 404.11 569.12 406.59 569.43 407.08C569.71 407.52 569.86 407.82 570.4 407.82C570.6 407.82 572.18 407.82 572.37 407.82C572.87 407.82 573 407.58 573 407.19C573 405.89 573 395.5 573 394.2C573 393.7 572.76 393.57 572.37 393.57C571.96 393.57 570.5 393.57 570.29 393.57Z" id="aJFHE1Qkl"></path><path d="M592.58 393.57C592.08 393.57 591.95 393.81 591.95 394.19C591.95 394.37 591.95 395.81 591.95 395.99C591.95 396.38 592.08 396.62 592.58 396.62C592.8 396.62 593.91 396.62 595.91 396.62C595.91 402.96 595.91 406.49 595.91 407.19C595.91 407.69 596.15 407.82 596.54 407.82C596.76 407.82 598.47 407.82 598.69 407.82C599.08 407.82 599.31 407.69 599.31 407.19C599.31 406.49 599.31 402.96 599.31 396.62C601.3 396.62 602.41 396.62 602.63 396.62C603.13 396.62 603.26 396.38 603.26 395.99C603.26 395.81 603.26 394.37 603.26 394.19C603.26 393.81 603.13 393.57 602.63 393.57C600.62 393.57 593.58 393.57 592.58 393.57Z" id="aLXBB0K1Z"></path><path d="M624.19 397.4C624.19 396.43 625.38 396.14 626.1 396.14C626.75 396.14 627.53 396.34 627.94 396.73C628.2 396.99 628.3 397.16 628.39 397.38C628.5 397.66 628.56 397.97 628.98 397.97C629.19 397.97 630.89 397.97 631.1 397.97C631.6 397.97 631.73 397.88 631.73 397.36C631.73 394.5 628.72 393.24 625.97 393.24C623.26 393.35 620.7 394.74 620.7 397.55C620.7 400.3 622.72 401.17 624.9 401.86C626.75 402.45 628.67 402.47 628.67 403.68C628.67 404.9 627.72 405.16 626.55 405.16C625.75 405.16 624.86 404.96 624.43 404.44C624.15 404.12 624.04 403.84 624.02 403.56C623.97 403.01 623.73 402.95 623.24 402.95C623.03 402.95 621.35 402.95 621.14 402.95C620.64 402.95 620.51 403.06 620.51 403.55C620.51 406.59 623.62 408.15 626.33 408.15C629.67 408.15 632.1 406.67 632.1 403.6C632.1 400.65 629.8 400.02 628.24 399.55C627.37 399.2 624.19 398.72 624.19 397.4Z" id="d84HDkxbU"></path><path d="M9.66 378.34L9.66 376.07L632.1 376.07L632.1 378.34L9.66 378.34Z" id="a37BWbwcBP"></path><path d="M9.66 427.59L9.66 425.32L632.1 425.32L632.1 427.59L9.66 427.59Z" id="aq4IPYaaA"></path><path d="M46.97 357.6L59.01 357.6C45.38 343.89 37.81 336.27 36.29 334.75C47.72 332.95 54.38 323.89 54.38 313.17C54.38 299.24 43.56 291.49 28.74 291.49C27.47 291.49 21.11 291.49 9.66 291.49L9.66 357.6L18.63 357.6L18.63 299.8C23.48 299.8 26.17 299.8 26.71 299.8C39.08 299.8 45.41 303.86 45.41 313.26C45.41 322.99 38.13 328.89 25.15 328.75C24.96 329 24.03 330.26 22.36 332.53L46.97 357.6Z" id="h5x4mja6N4"></path><path d="M101.84 299.9L101.84 291.49L65.67 291.49L65.67 357.6L101.84 357.6L101.84 349.2L74.64 349.2L74.64 328.09L99.43 328.09L99.43 319.83L74.64 319.83L74.64 299.9L101.84 299.9Z" id="a1m0B79alr"></path><path d="M150.1 357.6L159.35 357.6L135.27 291.49L129.6 291.49L105.28 357.6L114.68 357.6L132.3 309.11L132.58 309.11L150.1 357.6Z" id="d1bZPib27c"></path><path d="M214.98 294.51C210.5 291.78 204.36 290.03 197.79 290.03C178.43 290.03 163.7 305.99 163.7 323.98C163.7 343.06 178.43 359.07 197.79 359.07C204.64 359.07 210.87 357.04 216.11 353.54C215.69 352.84 212.29 347.21 211.86 346.51C207.9 349.34 203.08 350.33 197.79 350.33C183.39 350.33 172.67 338.1 172.67 323.98C172.67 310.95 183.3 298.77 197.79 298.77C202.85 298.77 207.62 299.52 211.53 301.88C211.53 301.88 214.64 295.25 214.98 294.51Z" id="c1clUng7Fq"></path><path d="M265.18 291.49L218.67 291.49L218.67 299.9L237.41 299.9L237.41 357.6L246.39 357.6L246.39 299.9L265.18 299.9L265.18 291.49Z" id="a3OBe2EaWN"></path><path d="M273.4 357.6L282.37 357.6L282.37 291.49L273.4 291.49L273.4 357.6Z" id="a1GPvAN6iU"></path><path d="M363.35 323.98C363.35 306.04 348.57 290.03 329.31 290.03C309.95 290.03 295.21 305.99 295.21 323.98C295.21 343.06 309.95 359.07 329.31 359.07C348.57 359.07 363.35 343.01 363.35 323.98ZM304.18 323.98C304.18 310.95 314.81 298.77 329.31 298.77C343.66 298.77 354.38 310.99 354.38 323.98C354.38 338.1 343.66 350.66 329.31 350.66C314.9 350.66 304.18 338.1 304.18 323.98Z" id="b7ffzv68F"></path><path d="M422.34 357.6L422.34 291.49L413.36 291.49L413.36 336.26L413.08 336.26L380.5 291.49L375.73 291.49L375.73 357.6L384.7 357.6L384.7 312.88L384.98 312.88L418.27 357.6L422.34 357.6Z" id="a1RAPkg85v"></path><path d="M475.27 357.6L484.53 357.6L460.44 291.49L454.78 291.49L430.46 357.6L439.85 357.6L457.47 309.11L457.75 309.11L475.27 357.6Z" id="bBCLtHF5w"></path><path d="M491.7 357.6C509.55 357.6 519.47 357.6 521.45 357.6C533.97 357.6 540.01 349.53 540.01 339.05C540.01 331.96 537.04 325.63 530.8 322.8C533.69 319.5 535.24 315.01 535.24 310C535.24 298.44 527.36 291.49 513.57 291.49C512.11 291.49 504.82 291.49 491.7 291.49L491.7 357.6ZM500.68 320.25L500.68 299.8C508.41 299.8 512.71 299.8 513.57 299.8C522.87 299.8 526.27 303.06 526.27 310.24C526.27 317.28 522.73 320.25 515.5 320.25C513.53 320.25 508.58 320.25 500.68 320.25ZM500.68 349.29L500.68 328.09C509.57 328.09 514.52 328.09 515.5 328.09C525.75 328.09 531.04 331.49 531.04 339.14C531.04 346.51 526.22 349.29 518.05 349.29C515.74 349.29 509.94 349.29 500.68 349.29Z" id="c1EvaNAQpR"></path><path d="M559.94 349.2L559.94 291.49L550.97 291.49L550.97 357.6L587.85 357.6L587.85 349.2L559.94 349.2Z" id="a1SVZU23EE"></path><path d="M632.1 299.9L632.1 291.49L595.92 291.49L595.92 357.6L632.1 357.6L632.1 349.2L604.9 349.2L604.9 328.09L629.69 328.09L629.69 319.83L604.9 319.83L604.9 299.9L632.1 299.9Z" id="eUBnkQYtl"></path><path d="M235.39 5.45L235.39 5.45L235.39 5.45L235.39 5.45Z" id="a3noa05ras"></path><path d="M319.79 5.32L319.79 5.32L319.79 5.32L319.79 5.32Z" id="g2bCfF7zNP"></path><path d="M452.25 136.81C452.25 204.68 397.15 259.77 329.28 259.77C261.42 259.77 206.32 204.68 206.32 136.81C206.32 68.94 261.42 13.85 329.28 13.85C397.15 13.85 452.25 68.94 452.25 136.81Z" id="f7qzdvrUnl"></path><path d="M352.95 53.36C348.25 30.13 338.36 14.25 326.18 12.98C323.36 12.66 320.47 13.17 317.61 14.38C317.95 15.12 320.66 21.05 321 21.79C322.58 21.12 323.99 20.88 325.32 20.99C331.19 21.6 337.74 30.61 341.95 43.97C343 47.26 343.89 50.81 344.66 54.48C337.18 55.75 329.24 57.64 321.12 60.12C313.66 55.94 306.28 52.4 299.19 49.57C305.82 34.75 313.85 24.78 321.02 21.74C320.68 21 317.97 15.08 317.63 14.34C317.63 14.34 317.63 14.34 317.63 14.34C308.15 18.34 298.72 30.1 291.34 46.71C273.66 40.78 258.31 39.58 248.83 43.59C249.17 44.33 251.88 50.26 252.22 51C259.35 47.99 272.44 48.99 288.25 54.24C285.65 61.17 283.37 68.75 281.59 76.84C274.17 80.93 267.35 85.28 261.34 89.77C259.03 86.78 256.97 83.8 255.15 80.89C247.72 68.88 245.21 58.17 248.66 53.58C249.42 52.54 250.65 51.71 252.23 51.04C251.89 50.29 249.18 44.37 248.85 43.63C248.85 43.63 248.85 43.63 248.85 43.63C245.95 44.85 243.6 46.56 241.91 48.78C234.68 58.26 240.18 75.96 254.81 94.91C236.29 110.35 226.99 126.46 231.92 137.22C236.85 148.02 255.56 152.32 279.96 149.57C284.66 172.8 294.55 188.68 306.73 189.95C309.55 190.27 312.44 189.76 315.34 188.53C324.82 184.52 334.25 172.76 341.63 156.16C359.31 162.08 374.66 163.28 384.14 159.27C387.03 158.05 389.38 156.34 391.08 154.12C398.3 144.64 392.8 126.94 378.17 107.99C396.64 92.61 405.92 76.47 401 65.71C396.06 54.91 377.36 50.61 352.95 53.36ZM347.34 77.62C344.71 75.56 342.02 73.53 339.18 71.55C336.38 69.57 333.51 67.69 330.66 65.88C335.88 64.5 340.99 63.37 345.99 62.53C346.68 67.35 347.11 72.44 347.34 77.62ZM343.88 120.79C338.95 123.39 333.85 125.83 328.61 128.04C323.4 130.25 318.09 132.21 312.81 133.97C308.14 131.23 303.42 128.19 298.7 124.87C294.09 121.63 289.69 118.22 285.48 114.68C285.59 109.33 285.96 103.86 286.56 98.41C287.2 92.79 288.01 87.37 289.06 82.2C294 79.6 299.1 77.17 304.34 74.95C309.54 72.75 314.85 70.78 320.13 69.02C324.8 71.77 329.52 74.81 334.25 78.12C338.85 81.36 343.25 84.78 347.46 88.31C347.32 93.68 346.98 99.14 346.39 104.59C345.75 110.21 344.94 115.63 343.88 120.79ZM366.35 106.77C362.32 109.74 357.97 112.65 353.36 115.43C353.88 112.16 354.37 108.82 354.72 105.46C355.09 102.13 355.35 98.81 355.54 95.56C359.44 99.22 363.06 103 366.35 106.77ZM322.36 139.21C325.52 138.03 328.74 136.79 331.95 135.43C335.19 134.06 338.36 132.64 341.42 131.15C340.1 136.35 338.52 141.26 336.8 145.79C332.14 143.96 327.31 141.76 322.36 139.21ZM286.89 140.42C286.2 135.59 285.77 130.5 285.54 125.33C288.17 127.39 290.86 129.42 293.7 131.39C296.53 133.36 299.37 135.26 302.22 137.07C297 138.44 291.89 139.57 286.89 140.42ZM310.52 63.73C307.35 64.91 304.14 66.15 300.93 67.51C297.69 68.88 294.52 70.3 291.46 71.79C292.78 66.59 294.36 61.68 296.08 57.15C300.74 58.99 305.57 61.19 310.52 63.73ZM278.16 97.48C277.79 100.81 277.52 104.1 277.32 107.35C273.42 103.69 269.8 99.91 266.52 96.14C270.56 93.2 274.91 90.29 279.52 87.51C279 90.78 278.51 94.12 278.16 97.48ZM239.57 133.99C237.18 128.77 242.05 118.82 251.97 108.68C254.38 106.19 257.11 103.73 259.99 101.28C264.93 106.96 270.61 112.65 276.99 118.24C276.98 126.49 277.51 134.31 278.55 141.61C274.66 142.02 270.91 142.26 267.35 142.3C252.85 142.44 241.95 139.2 239.57 133.99ZM290.96 158.96C289.91 155.67 289.03 152.12 288.25 148.44C295.74 147.18 303.67 145.29 311.79 142.81C319.25 146.99 326.63 150.53 333.72 153.36C327.09 168.18 319.07 178.15 311.9 181.18C310.33 181.81 308.89 182.06 307.59 181.93C301.72 181.33 295.18 172.32 290.96 158.96ZM384.25 149.35C383.49 150.39 382.27 151.22 380.68 151.89C373.55 154.91 360.46 153.9 344.65 148.66C347.25 141.73 349.53 134.14 351.31 126.06C358.73 121.96 365.55 117.62 371.56 113.13C373.88 116.15 375.98 119.11 377.77 122.04C385.19 134.05 387.7 144.76 384.25 149.35ZM372.89 101.66C367.95 95.98 362.27 90.3 355.89 84.71C355.9 76.46 355.37 68.63 354.33 61.34C358.22 60.92 361.97 60.68 365.57 60.63C380.06 60.49 390.96 63.73 393.35 68.94C395.7 74.17 390.83 84.12 380.91 94.27C378.5 96.75 375.77 99.22 372.89 101.66Z" id="d5bhxM9N41"></path><path d="M246.68 64.09L246.68 64.09L246.68 64.09L246.68 64.09Z" id="b4EzgXlQA"></path><path d="M306.76 88.16C298.59 92.83 295.91 103 300.78 110.88C305.64 118.75 316.2 121.35 324.37 116.68C332.54 112 335.22 101.83 330.35 93.96C325.49 86.08 314.93 83.48 306.76 88.16Z" id="b1WQcaPo5S"></path><path d="M296.42 32.9L296.42 32.9L296.42 32.9L296.42 32.9Z" id="b4sdqNuXy"></path><path d="M369.98 98.92L369.11 97.63L369.98 98.92Z" id="b11lmo1pTh"></path><path d="M334.66 94.62L333.8 93.32L334.66 94.62Z" id="a2q8pS2e0"></path><path d="M376.44 107.97L375.57 106.67L376.44 107.97Z" id="bMlJxO5J4"></path><path d="M334.52 108.54L334.38 108.25L334.52 108.54Z" id="anLvom2YC"></path><path d="M362.66 119.16L361.36 120.02L362.66 119.16Z" id="deEv5H38h"></path><path d="M355.33 123.04L354.47 121.32L355.33 123.04Z" id="a5PUbRfR4t"></path><path d="M369.69 125.48L369.4 125.34L369.69 125.48Z" id="c4nO78JxO"></path><path d="M378.02 126.63L377.87 126.34L378.02 126.63Z" id="a2hjagh3i2"></path><path d="M340.69 202.28C340.69 174.63 340.69 159.27 340.69 156.2C340.69 150.64 338.94 141.57 341.01 136.41C343.62 129.89 350.67 133.37 354.47 135.96C353.88 127.08 344.72 129.64 340.26 133.37C339.62 127.14 329.03 123 326.91 130.36C325.02 128.34 325.62 116.06 325.62 113.46C325.61 106.71 326.67 102.62 319.75 98.28C315.76 95.77 313.11 97.54 311.65 102.21C309.9 107.78 309.99 113.87 310.06 119.59C310.29 138.92 308.13 159.76 310.19 179.02C310.66 183.39 312.01 187.66 314.13 191.51C316.38 195.62 318.73 197.4 318.73 202.28C321.66 202.28 328.98 202.28 340.69 202.28Z" id="afypmNB1X"></path><path d="M343.85 127.2L343.56 127.06L343.85 127.2Z" id="c2Jw1zD1KX"></path><path d="M378.45 127.49L378.3 127.2L378.45 127.49Z" id="a11i5ORNVK"></path><path d="M364.95 127.63L364.67 127.49L364.95 127.63Z" id="f3AHQGF4Pu"></path><path d="M341.27 128.06L340.98 127.92L341.27 128.06Z" id="a3Gdk2SPJM"></path><path d="M364.09 128.06L363.8 127.92L364.09 128.06Z" id="dWkBS6Y67"></path><path d="M360.21 129.79L359.93 129.64L360.21 129.79Z" id="d57JL07x2w"></path><path d="M359.35 130.22L359.07 130.07L359.35 130.22Z" id="aqfO9TQdD"></path><path d="M355.05 131.94L354.76 131.8L355.05 131.94Z" id="a4XbrNRGRE"></path><path d="M366.56 203.57L366.56 203.13L362.2 203.13L362.2 197.38L361.76 197.38L361.76 203.13L349.96 203.13C349.96 202.86 349.96 202.72 349.96 202.69C353.31 202.18 356.49 200.34 359.14 198.25C361.81 196.14 365.34 193.22 367.08 190.24C372.41 181.06 369.62 167.17 369.62 157.1C369.62 152.02 371.41 142.61 369.11 138.08C366.26 132.48 358.65 133.98 355.05 137.3C353.38 131.62 341.67 129.47 340.18 137.53C338.91 144.42 340.35 150.97 340.35 157.98C340.35 160.99 340.35 176.04 340.35 203.13L366.56 203.57Z" id="c1JEN2JHyW"></path><path d="M355.33 138.54C360.29 135.28 366.19 133.81 369.55 140.27C371.26 135.43 364.49 131.88 360.5 132.81C358.02 133.39 356.64 135.31 354.47 136.39C354.64 136.82 355.25 138.33 355.33 138.54Z" id="aZ4xs100d"></path><path d="M355.76 136.39L354.9 134.67L355.76 136.39Z" id="b6bAxFB9m"></path><path d="M310.62 170.37C310.59 168.69 310.36 155.26 310.34 153.58C310.3 151.58 310.87 146.55 305.95 147.15C300.68 147.79 304.07 152.88 304.22 154.97C304.75 162.71 306.71 170.78 310.14 178.13C311.44 175.86 310.66 172.79 310.62 170.37Z" id="cftRfLW63"></path><path d="M350.17 202.28L362.22 202.28C364.52 195.56 365.81 191.83 366.1 191.08C360.21 194.07 357.23 200.17 350.17 201.85C350.17 201.91 350.17 202.05 350.17 202.28Z" id="c12DizZ2iq"></path><path d="M316 194.67L315.86 194.38L316 194.67Z" id="bWTWMvDsP"></path><path d="M318.3 201.6L313.56 201.6L313.56 215.63L340.26 215.63L340.26 202.95L366.96 203.41C366.96 202.32 366.96 201.72 366.96 201.6C360.85 203.13 353.78 201.9 347.58 201.61C338 201.17 328.32 201.6 318.73 201.6C318.7 201.23 317.16 201.23 314.1 201.6L318.3 201.6Z" id="bHzB27CnI"></path><path d="M310.26 195.25L309.97 195.1L310.26 195.25Z" id="b7RGyHmNza"></path><path d="M363.8 195.53L363.66 195.25L363.8 195.53Z" id="dPGld2iZJ"></path><path d="M309.4 195.68L309.11 195.53L309.4 195.68Z" id="a1W5fvhpgD"></path><path d="M317.72 196.82L317.58 196.54L317.72 196.82Z" id="a3gnhdqDzT"></path><path d="M340.26 215.63L367.39 215.63L366.94 203.43L359.95 202.62L340.26 202.62L340.26 215.63Z" id="b4H5HjJ0L"></path><path d="M358.78 212.62C358.69 212.66 358 213 357.92 213.05C361.73 214.64 366.94 210.14 363.02 206.77C361.59 205.55 359.67 205.73 357.92 205.72C357.46 208.42 355.57 210.79 358.78 212.62Z" id="b2bjQAQpId"></path><path d="M358.78 212.62C356.31 210.49 356.94 208.73 358.35 206.16C354.69 207.22 355 212.45 358.78 213.05C358.78 212.96 358.78 212.66 358.78 212.62Z" id="bOZ1CsKAw"></path><path d="M363.52 207.02L363.09 206.59L363.52 207.02Z" id="a2qNHw5vt"></path><path d="M355.33 210.46L355.76 210.46L355.33 208.31L355.33 210.46Z" id="adeCHbX3o"></path><path d="M356.2 211.75L355.76 211.32L356.2 211.75Z" id="d9IfhMJkE2"></path><path d="M361.94 213.33L361.65 213.19L361.94 213.33Z" id="abvxHQJrm"></path><path d="M308.82 258.05C318.93 259.91 329.98 260.58 340.14 259.31C340.14 256.53 340.19 242.53 340.3 217.31L372.22 217.31L372.22 215.57L308.82 215.57C308.82 241.02 308.82 255.18 308.82 258.05Z" id="a1O0HT2yIw"></path><path d="M339.87 259.48L342.65 258.15C342.46 258.24 342.28 258.32 342.11 258.4C340.65 259.04 339.92 259.16 339.92 259.19C347.79 259.03 355.12 257.63 362.04 255.56C365.53 254.51 368.42 253.06 372.22 252.21C372.22 249.86 372.22 238.24 372.22 217.35L339.92 217.35L339.87 259.48Z" id="i1PyooxCR5"></path><path d="M352.46 257.26L352.18 257.12L352.46 257.26Z" id="b1rO6d5b8J"></path><path d="M341.7 258.98L341.41 258.84L341.7 258.98Z" id="a1fYHP1jFa"></path></defs><g><g><g><use xlink:href="#dr1Zm2F61" opacity="1" fill="#0085ca" fill-opacity="1"></use><g><use xlink:href="#dr1Zm2F61" opacity="1" fill-opacity="0" stroke="#000000" stroke-width="1" stroke-opacity="0"></use></g></g><g><use xlink:href="#d2cJks4gpP" opacity="1" fill="#0085ca" fill-opacity="1"></use><g><use xlink:href="#d2cJks4gpP" opacity="1" fill-opacity="0" stroke="#000000" stroke-width="1" stroke-opacity="0"></use></g></g><g><use xlink:href="#akltcSDMi" opacity="1" fill="#0085ca" fill-opacity="1"></use><g><use xlink:href="#akltcSDMi" opacity="1" fill-opacity="0" stroke="#000000" stroke-width="1" stroke-opacity="0"></use></g></g><g><use xlink:href="#a2V6HQucG1" opacity="1" fill="#0085ca" fill-opacity="1"></use><g><use xlink:href="#a2V6HQucG1" opacity="1" fill-opacity="0" stroke="#000000" stroke-width="1" stroke-opacity="0"></use></g></g><g><use xlink:href="#b5kHuxGuhs" opacity="1" fill="#0085ca" fill-opacity="1"></use><g><use xlink:href="#b5kHuxGuhs" opacity="1" fill-opacity="0" stroke="#000000" stroke-width="1" stroke-opacity="0"></use></g></g><g><use xlink:href="#fP2ryJ8R" opacity="1" fill="#0085ca" fill-opacity="1"></use><g><use xlink:href="#fP2ryJ8R" opacity="1" fill-opacity="0" stroke="#000000" stroke-width="1" stroke-opacity="0"></use></g></g><g><use xlink:href="#cbb4GzAIG" opacity="1" fill="#0085ca" fill-opacity="1"></use><g><use xlink:href="#cbb4GzAIG" opacity="1" fill-opacity="0" stroke="#000000" stroke-width="1" stroke-opacity="0"></use></g></g><g><use xlink:href="#a2Y7omtHY2" opacity="1" fill="#0085ca" fill-opacity="1"></use><g><use xlink:href="#a2Y7omtHY2" opacity="1" fill-opacity="0" stroke="#000000" stroke-width="1" stroke-opacity="0"></use></g></g><g><use xlink:href="#b1Vo3Qoy5d" opacity="1" fill="#0085ca" fill-opacity="1"></use><g><use xlink:href="#b1Vo3Qoy5d" opacity="1" fill-opacity="0" stroke="#000000" stroke-width="1" stroke-opacity="0"></use></g></g><g><use xlink:href="#aejvifG8F" opacity="1" fill="#0085ca" fill-opacity="1"></use><g><use xlink:href="#aejvifG8F" opacity="1" fill-opacity="0" stroke="#000000" stroke-width="1" stroke-opacity="0"></use></g></g><g><use xlink:href="#e1G4YMD7w" opacity="1" fill="#0085ca" fill-opacity="1"></use><g><use xlink:href="#e1G4YMD7w" opacity="1" fill-opacity="0" stroke="#000000" stroke-width="1" stroke-opacity="0"></use></g></g><g><use xlink:href="#e6ITRFRTE" opacity="1" fill="#0085ca" fill-opacity="1"></use><g><use xlink:href="#e6ITRFRTE" opacity="1" fill-opacity="0" stroke="#000000" stroke-width="1" stroke-opacity="0"></use></g></g><g><use xlink:href="#aMsbZZqxu" opacity="1" fill="#0085ca" fill-opacity="1"></use><g><use xlink:href="#aMsbZZqxu" opacity="1" fill-opacity="0" stroke="#000000" stroke-width="1" stroke-opacity="0"></use></g></g><g><use xlink:href="#a20yW7gqrr" opacity="1" fill="#0085ca" fill-opacity="1"></use><g><use xlink:href="#a20yW7gqrr" opacity="1" fill-opacity="0" stroke="#000000" stroke-width="1" stroke-opacity="0"></use></g></g><g><use xlink:href="#e2Qmmi8Em" opacity="1" fill="#0085ca" fill-opacity="1"></use><g><use xlink:href="#e2Qmmi8Em" opacity="1" fill-opacity="0" stroke="#000000" stroke-width="1" stroke-opacity="0"></use></g></g><g><use xlink:href="#b61kf7P7v" opacity="1" fill="#0085ca" fill-opacity="1"></use><g><use xlink:href="#b61kf7P7v" opacity="1" fill-opacity="0" stroke="#000000" stroke-width="1" stroke-opacity="0"></use></g></g><g><use xlink:href="#a1WKrcX9FW" opacity="1" fill="#0085ca" fill-opacity="1"></use><g><use xlink:href="#a1WKrcX9FW" opacity="1" fill-opacity="0" stroke="#000000" stroke-width="1" stroke-opacity="0"></use></g></g><g><use xlink:href="#aJFHE1Qkl" opacity="1" fill="#0085ca" fill-opacity="1"></use><g><use xlink:href="#aJFHE1Qkl" opacity="1" fill-opacity="0" stroke="#000000" stroke-width="1" stroke-opacity="0"></use></g></g><g><use xlink:href="#aLXBB0K1Z" opacity="1" fill="#0085ca" fill-opacity="1"></use><g><use xlink:href="#aLXBB0K1Z" opacity="1" fill-opacity="0" stroke="#000000" stroke-width="1" stroke-opacity="0"></use></g></g><g><use xlink:href="#d84HDkxbU" opacity="1" fill="#0085ca" fill-opacity="1"></use><g><use xlink:href="#d84HDkxbU" opacity="1" fill-opacity="0" stroke="#000000" stroke-width="1" stroke-opacity="0"></use></g></g><g><use xlink:href="#a37BWbwcBP" opacity="1" fill="#0085ca" fill-opacity="1"></use><g><use xlink:href="#a37BWbwcBP" opacity="1" fill-opacity="0" stroke="#000000" stroke-width="1" stroke-opacity="0"></use></g></g><g><use xlink:href="#aq4IPYaaA" opacity="1" fill="#0085ca" fill-opacity="1"></use><g><use xlink:href="#aq4IPYaaA" opacity="1" fill-opacity="0" stroke="#000000" stroke-width="1" stroke-opacity="0"></use></g></g><g><use xlink:href="#h5x4mja6N4" opacity="1" fill="#0085ca" fill-opacity="1"></use><g><use xlink:href="#h5x4mja6N4" opacity="1" fill-opacity="0" stroke="#000000" stroke-width="1" stroke-opacity="0"></use></g></g><g><use xlink:href="#a1m0B79alr" opacity="1" fill="#0085ca" fill-opacity="1"></use><g><use xlink:href="#a1m0B79alr" opacity="1" fill-opacity="0" stroke="#000000" stroke-width="1" stroke-opacity="0"></use></g></g><g><use xlink:href="#d1bZPib27c" opacity="1" fill="#0085ca" fill-opacity="1"></use><g><use xlink:href="#d1bZPib27c" opacity="1" fill-opacity="0" stroke="#000000" stroke-width="1" stroke-opacity="0"></use></g></g><g><use xlink:href="#c1clUng7Fq" opacity="1" fill="#0085ca" fill-opacity="1"></use><g><use xlink:href="#c1clUng7Fq" opacity="1" fill-opacity="0" stroke="#000000" stroke-width="1" stroke-opacity="0"></use></g></g><g><use xlink:href="#a3OBe2EaWN" opacity="1" fill="#0085ca" fill-opacity="1"></use><g><use xlink:href="#a3OBe2EaWN" opacity="1" fill-opacity="0" stroke="#000000" stroke-width="1" stroke-opacity="0"></use></g></g><g><use xlink:href="#a1GPvAN6iU" opacity="1" fill="#0085ca" fill-opacity="1"></use><g><use xlink:href="#a1GPvAN6iU" opacity="1" fill-opacity="0" stroke="#000000" stroke-width="1" stroke-opacity="0"></use></g></g><g><use xlink:href="#b7ffzv68F" opacity="1" fill="#0085ca" fill-opacity="1"></use><g><use xlink:href="#b7ffzv68F" opacity="1" fill-opacity="0" stroke="#000000" stroke-width="1" stroke-opacity="0"></use></g></g><g><use xlink:href="#a1RAPkg85v" opacity="1" fill="#0085ca" fill-opacity="1"></use><g><use xlink:href="#a1RAPkg85v" opacity="1" fill-opacity="0" stroke="#000000" stroke-width="1" stroke-opacity="0"></use></g></g><g><use xlink:href="#bBCLtHF5w" opacity="1" fill="#0085ca" fill-opacity="1"></use><g><use xlink:href="#bBCLtHF5w" opacity="1" fill-opacity="0" stroke="#000000" stroke-width="1" stroke-opacity="0"></use></g></g><g><use xlink:href="#c1EvaNAQpR" opacity="1" fill="#0085ca" fill-opacity="1"></use><g><use xlink:href="#c1EvaNAQpR" opacity="1" fill-opacity="0" stroke="#000000" stroke-width="1" stroke-opacity="0"></use></g></g><g><use xlink:href="#a1SVZU23EE" opacity="1" fill="#0085ca" fill-opacity="1"></use><g><use xlink:href="#a1SVZU23EE" opacity="1" fill-opacity="0" stroke="#000000" stroke-width="1" stroke-opacity="0"></use></g></g><g><use xlink:href="#eUBnkQYtl" opacity="1" fill="#0085ca" fill-opacity="1"></use><g><use xlink:href="#eUBnkQYtl" opacity="1" fill-opacity="0" stroke="#000000" stroke-width="1" stroke-opacity="0"></use></g></g><g><use xlink:href="#a3noa05ras" opacity="1" fill="#61dafb" fill-opacity="1"></use><g><use xlink:href="#a3noa05ras" opacity="1" fill-opacity="0" stroke="#000000" stroke-width="1" stroke-opacity="0"></use></g></g><g><use xlink:href="#g2bCfF7zNP" opacity="1" fill="#61dafb" fill-opacity="1"></use><g><use xlink:href="#g2bCfF7zNP" opacity="1" fill-opacity="0" stroke="#000000" stroke-width="1" stroke-opacity="0"></use></g></g><g><use xlink:href="#f7qzdvrUnl" opacity="1" fill="#0085ca" fill-opacity="1"></use></g><g><use xlink:href="#d5bhxM9N41" opacity="1" fill="#ffffff" fill-opacity="1"></use><g><use xlink:href="#d5bhxM9N41" opacity="1" fill-opacity="0" stroke="#000000" stroke-width="1" stroke-opacity="0"></use></g></g><g><use xlink:href="#b4EzgXlQA" opacity="1" fill="#61dafb" fill-opacity="1"></use><g><use xlink:href="#b4EzgXlQA" opacity="1" fill-opacity="0" stroke="#000000" stroke-width="1" stroke-opacity="0"></use></g></g><g><use xlink:href="#b1WQcaPo5S" opacity="1" fill="#ffffff" fill-opacity="1"></use><g><use xlink:href="#b1WQcaPo5S" opacity="1" fill-opacity="0" stroke="#000000" stroke-width="1" stroke-opacity="0"></use></g></g><g><use xlink:href="#b4sdqNuXy" opacity="1" fill="#61dafb" fill-opacity="1"></use><g><use xlink:href="#b4sdqNuXy" opacity="1" fill-opacity="0" stroke="#000000" stroke-width="1" stroke-opacity="0"></use></g></g><g><g><use xlink:href="#b11lmo1pTh" opacity="1" fill="#befcff" fill-opacity="1"></use><g><use xlink:href="#b11lmo1pTh" opacity="1" fill-opacity="0" stroke="#000000" stroke-width="1" stroke-opacity="0"></use></g></g><g><use xlink:href="#a2q8pS2e0" opacity="1" fill="#80e5f9" fill-opacity="1"></use><g><use xlink:href="#a2q8pS2e0" opacity="1" fill-opacity="0" stroke="#000000" stroke-width="1" stroke-opacity="0"></use></g></g><g><use xlink:href="#bMlJxO5J4" opacity="1" fill="#aeffff" fill-opacity="1"></use><g><use xlink:href="#bMlJxO5J4" opacity="1" fill-opacity="0" stroke="#000000" stroke-width="1" stroke-opacity="0"></use></g></g><g><use xlink:href="#anLvom2YC" opacity="1" fill="#83e4f7" fill-opacity="1"></use><g><use xlink:href="#anLvom2YC" opacity="1" fill-opacity="0" stroke="#000000" stroke-width="1" stroke-opacity="0"></use></g></g><g><use xlink:href="#deEv5H38h" opacity="1" fill="#bbf7ff" fill-opacity="1"></use><g><use xlink:href="#deEv5H38h" opacity="1" fill-opacity="0" stroke="#000000" stroke-width="1" stroke-opacity="0"></use></g></g><g><use xlink:href="#a5PUbRfR4t" opacity="1" fill="#baf4ff" fill-opacity="1"></use><g><use xlink:href="#a5PUbRfR4t" opacity="1" fill-opacity="0" stroke="#000000" stroke-width="1" stroke-opacity="0"></use></g></g><g><use xlink:href="#c4nO78JxO" opacity="1" fill="#62e4fc" fill-opacity="1"></use><g><use xlink:href="#c4nO78JxO" opacity="1" fill-opacity="0" stroke="#000000" stroke-width="1" stroke-opacity="0"></use></g></g><g><use xlink:href="#a2hjagh3i2" opacity="1" fill="#7ae3f8" fill-opacity="1"></use><g><use xlink:href="#a2hjagh3i2" opacity="1" fill-opacity="0" stroke="#000000" stroke-width="1" stroke-opacity="0"></use></g></g><g><use xlink:href="#afypmNB1X" opacity="1" fill="#f5caaa" fill-opacity="1"></use><g><use xlink:href="#afypmNB1X" opacity="1" fill-opacity="0" stroke="#000000" stroke-width="1" stroke-opacity="0"></use></g></g><g><use xlink:href="#c2Jw1zD1KX" opacity="1" fill="#82e7fb" fill-opacity="1"></use><g><use xlink:href="#c2Jw1zD1KX" opacity="1" fill-opacity="0" stroke="#000000" stroke-width="1" stroke-opacity="0"></use></g></g><g><use xlink:href="#a11i5ORNVK" opacity="1" fill="#73edff" fill-opacity="1"></use><g><use xlink:href="#a11i5ORNVK" opacity="1" fill-opacity="0" stroke="#000000" stroke-width="1" stroke-opacity="0"></use></g></g><g><use xlink:href="#f3AHQGF4Pu" opacity="1" fill="#82f1ff" fill-opacity="1"></use><g><use xlink:href="#f3AHQGF4Pu" opacity="1" fill-opacity="0" stroke="#000000" stroke-width="1" stroke-opacity="0"></use></g></g><g><use xlink:href="#a3Gdk2SPJM" opacity="1" fill="#6eebff" fill-opacity="1"></use><g><use xlink:href="#a3Gdk2SPJM" opacity="1" fill-opacity="0" stroke="#000000" stroke-width="1" stroke-opacity="0"></use></g></g><g><use xlink:href="#dWkBS6Y67" opacity="1" fill="#74ecff" fill-opacity="1"></use><g><use xlink:href="#dWkBS6Y67" opacity="1" fill-opacity="0" stroke="#000000" stroke-width="1" stroke-opacity="0"></use></g></g><g><use xlink:href="#d57JL07x2w" opacity="1" fill="#8df0ff" fill-opacity="1"></use><g><use xlink:href="#d57JL07x2w" opacity="1" fill-opacity="0" stroke="#000000" stroke-width="1" stroke-opacity="0"></use></g></g><g><use xlink:href="#aqfO9TQdD" opacity="1" fill="#68e6ff" fill-opacity="1"></use><g><use xlink:href="#aqfO9TQdD" opacity="1" fill-opacity="0" stroke="#000000" stroke-width="1" stroke-opacity="0"></use></g></g><g><use xlink:href="#a4XbrNRGRE" opacity="1" fill="#9afaff" fill-opacity="1"></use><g><use xlink:href="#a4XbrNRGRE" opacity="1" fill-opacity="0" stroke="#000000" stroke-width="1" stroke-opacity="0"></use></g></g><g><use xlink:href="#c1JEN2JHyW" opacity="1" fill="#faeadd" fill-opacity="1"></use><g><use xlink:href="#c1JEN2JHyW" opacity="1" fill-opacity="0" stroke="#000000" stroke-width="1" stroke-opacity="0"></use></g></g><g><use xlink:href="#aZ4xs100d" opacity="1" fill="#f5caaa" fill-opacity="1"></use><g><use xlink:href="#aZ4xs100d" opacity="1" fill-opacity="0" stroke="#000000" stroke-width="1" stroke-opacity="0"></use></g></g><g><use xlink:href="#b6bAxFB9m" opacity="1" fill="#64b3b7" fill-opacity="1"></use><g><use xlink:href="#b6bAxFB9m" opacity="1" fill-opacity="0" stroke="#000000" stroke-width="1" stroke-opacity="0"></use></g></g><g><use xlink:href="#cftRfLW63" opacity="1" fill="#d2a683" fill-opacity="1"></use><g><use xlink:href="#cftRfLW63" opacity="1" fill-opacity="0" stroke="#000000" stroke-width="1" stroke-opacity="0"></use></g></g><g><use xlink:href="#c12DizZ2iq" opacity="1" fill="#f5caaa" fill-opacity="1"></use><g><use xlink:href="#c12DizZ2iq" opacity="1" fill-opacity="0" stroke="#000000" stroke-width="1" stroke-opacity="0"></use></g></g><g><use xlink:href="#bWTWMvDsP" opacity="1" fill="#48beca" fill-opacity="1"></use><g><use xlink:href="#bWTWMvDsP" opacity="1" fill-opacity="0" stroke="#000000" stroke-width="1" stroke-opacity="0"></use></g></g><g><use xlink:href="#bHzB27CnI" opacity="1" fill="#ebeff0" fill-opacity="1"></use><g><use xlink:href="#bHzB27CnI" opacity="1" fill-opacity="0" stroke="#000000" stroke-width="1" stroke-opacity="0"></use></g></g><g><use xlink:href="#b7RGyHmNza" opacity="1" fill="#6be5fc" fill-opacity="1"></use><g><use xlink:href="#b7RGyHmNza" opacity="1" fill-opacity="0" stroke="#000000" stroke-width="1" stroke-opacity="0"></use></g></g><g><use xlink:href="#dPGld2iZJ" opacity="1" fill="#48bec8" fill-opacity="1"></use><g><use xlink:href="#dPGld2iZJ" opacity="1" fill-opacity="0" stroke="#000000" stroke-width="1" stroke-opacity="0"></use></g></g><g><use xlink:href="#a1W5fvhpgD" opacity="1" fill="#81ecff" fill-opacity="1"></use><g><use xlink:href="#a1W5fvhpgD" opacity="1" fill-opacity="0" stroke="#000000" stroke-width="1" stroke-opacity="0"></use></g></g><g><use xlink:href="#a3gnhdqDzT" opacity="1" fill="#48beca" fill-opacity="1"></use><g><use xlink:href="#a3gnhdqDzT" opacity="1" fill-opacity="0" stroke="#000000" stroke-width="1" stroke-opacity="0"></use></g></g><g><use xlink:href="#b4H5HjJ0L" opacity="1" fill="#fbfbfb" fill-opacity="1"></use><g><use xlink:href="#b4H5HjJ0L" opacity="1" fill-opacity="0" stroke="#000000" stroke-width="1" stroke-opacity="0"></use></g></g><g><use xlink:href="#b2bjQAQpId" opacity="1" fill="#5d4135" fill-opacity="1"></use><g><use xlink:href="#b2bjQAQpId" opacity="1" fill-opacity="0" stroke="#000000" stroke-width="1" stroke-opacity="0"></use></g></g><g><use xlink:href="#bOZ1CsKAw" opacity="1" fill="#33221b" fill-opacity="1"></use><g><use xlink:href="#bOZ1CsKAw" opacity="1" fill-opacity="0" stroke="#000000" stroke-width="1" stroke-opacity="0"></use></g></g><g><use xlink:href="#a2qNHw5vt" opacity="1" fill="#a99c96" fill-opacity="1"></use><g><use xlink:href="#a2qNHw5vt" opacity="1" fill-opacity="0" stroke="#000000" stroke-width="1" stroke-opacity="0"></use></g></g><g><use xlink:href="#adeCHbX3o" opacity="1" fill="#5e534d" fill-opacity="1"></use><g><use xlink:href="#adeCHbX3o" opacity="1" fill-opacity="0" stroke="#000000" stroke-width="1" stroke-opacity="0"></use></g></g><g><use xlink:href="#d9IfhMJkE2" opacity="1" fill="#847a78" fill-opacity="1"></use><g><use xlink:href="#d9IfhMJkE2" opacity="1" fill-opacity="0" stroke="#000000" stroke-width="1" stroke-opacity="0"></use></g></g><g><use xlink:href="#abvxHQJrm" opacity="1" fill="#c9c5c4" fill-opacity="1"></use><g><use xlink:href="#abvxHQJrm" opacity="1" fill-opacity="0" stroke="#000000" stroke-width="1" stroke-opacity="0"></use></g></g><g><use xlink:href="#a1O0HT2yIw" opacity="1" fill="#192533" fill-opacity="1"></use><g><use xlink:href="#a1O0HT2yIw" opacity="1" fill-opacity="0" stroke="#000000" stroke-width="1" stroke-opacity="0"></use></g></g><g><use xlink:href="#i1PyooxCR5" opacity="1" fill="#36485e" fill-opacity="1"></use><g><use xlink:href="#i1PyooxCR5" opacity="1" fill-opacity="0" stroke="#000000" stroke-width="1" stroke-opacity="0"></use></g></g><g><use xlink:href="#b1rO6d5b8J" opacity="1" fill="#809694" fill-opacity="1"></use><g><use xlink:href="#b1rO6d5b8J" opacity="1" fill-opacity="0" stroke="#000000" stroke-width="1" stroke-opacity="0"></use></g></g><g><use xlink:href="#a1fYHP1jFa" opacity="1" fill="#8ab3b5" fill-opacity="1"></use><g><use xlink:href="#a1fYHP1jFa" opacity="1" fill-opacity="0" stroke="#000000" stroke-width="1" stroke-opacity="0"></use></g></g></g></g></g></svg>