<?xml version="1.0" encoding="UTF-8" standalone="no"?>
<!DOCTYPE svg PUBLIC "-//W3C//DTD SVG 1.1//EN" "http://www.w3.org/Graphics/SVG/1.1/DTD/svg11.dtd">
<svg version="1.1" xmlns="http://www.w3.org/2000/svg" xmlns:xlink="http://www.w3.org/1999/xlink" preserveAspectRatio="xMidYMid meet" viewBox="0 0 640 640" width="640" height="640"><defs><path d="M638.67 320.43C638.67 495.92 496.2 638.39 320.72 638.39C145.23 638.39 2.76 495.92 2.76 320.43C2.76 144.95 145.23 2.48 320.72 2.48C496.2 2.48 638.67 144.95 638.67 320.43Z" id="c1sofl9wN"></path><path d="M381.91 104.65C369.76 44.58 344.19 3.52 312.69 0.24C305.41 -0.58 297.93 0.74 290.53 3.87C291.41 5.78 298.41 21.11 299.29 23.03C303.39 21.29 307.04 20.67 310.47 20.96C325.65 22.54 342.58 45.83 353.48 80.38C356.19 88.87 358.48 98.05 360.48 107.56C341.13 110.82 320.61 115.71 299.61 122.13C280.32 111.33 261.24 102.17 242.9 94.86C260.05 56.54 280.8 30.74 299.34 22.9C298.46 20.99 291.46 5.66 290.58 3.74C290.58 3.74 290.58 3.74 290.58 3.74C266.07 14.11 241.69 44.52 222.61 87.45C176.89 72.13 137.19 69.03 112.68 79.4C113.56 81.31 120.57 96.64 121.44 98.56C139.89 90.75 173.73 93.36 214.6 106.93C207.9 124.83 201.98 144.46 197.4 165.37C178.2 175.95 160.58 187.19 145.04 198.79C139.06 191.06 133.74 183.37 129.02 175.83C109.82 144.79 103.33 117.09 112.26 105.21C114.22 102.53 117.38 100.38 121.48 98.64C120.61 96.73 113.6 81.4 112.72 79.48C112.72 79.48 112.72 79.48 112.72 79.48C105.24 82.65 99.17 87.06 94.78 92.81C76.1 117.32 90.32 163.08 128.15 212.08C80.26 252.02 56.22 293.67 68.95 321.5C81.71 349.42 130.08 360.54 193.19 353.43C205.34 413.5 230.92 454.55 262.41 457.84C269.69 458.66 277.17 457.34 284.66 454.17C309.17 443.81 333.55 413.4 352.64 370.47C398.35 385.79 438.05 388.88 462.56 378.52C470.04 375.35 476.11 370.94 480.5 365.19C499.18 340.68 484.96 294.92 447.13 245.92C494.88 206.14 518.88 164.41 506.15 136.58C493.39 108.66 445.02 97.54 381.91 104.65ZM367.41 167.37C360.61 162.05 353.64 156.8 346.31 151.69C339.07 146.55 331.64 141.7 324.29 137.02C337.77 133.47 351 130.54 363.93 128.35C365.7 140.83 366.82 153.99 367.41 167.37ZM358.47 279.01C345.7 285.74 332.52 292.04 318.97 297.77C305.52 303.46 291.78 308.55 278.12 313.1C266.05 306 253.85 298.14 241.63 289.57C229.71 281.18 218.34 272.36 207.46 263.22C207.73 249.37 208.7 235.22 210.24 221.14C211.89 206.6 213.99 192.59 216.71 179.24C229.48 172.5 242.66 166.21 256.21 160.48C269.67 154.79 283.4 149.7 297.06 145.15C309.13 152.25 321.33 160.1 333.55 168.68C345.47 177.07 356.84 185.89 367.72 195.03C367.37 208.92 366.48 223.03 364.94 237.11C363.29 251.65 361.19 265.66 358.47 279.01ZM416.55 242.76C406.13 250.44 394.89 257.96 382.98 265.16C384.32 256.7 385.58 248.06 386.5 239.37C387.46 230.76 388.11 222.18 388.62 213.77C398.69 223.24 408.06 233.02 416.55 242.76ZM302.82 326.64C311 323.59 319.31 320.38 327.6 316.88C335.98 313.33 344.19 309.66 352.1 305.8C348.68 319.24 344.59 331.94 340.16 343.65C328.11 338.91 315.61 333.22 302.82 326.64ZM211.09 329.76C209.32 317.29 208.19 304.13 207.6 290.74C214.4 296.07 221.37 301.32 228.7 306.42C236.03 311.52 243.38 316.41 250.73 321.1C237.25 324.64 224.02 327.57 211.09 329.76ZM272.19 131.47C264.02 134.52 255.7 137.73 247.41 141.24C239.03 144.78 230.83 148.46 222.91 152.32C226.34 138.87 230.42 126.18 234.85 114.46C246.91 119.2 259.4 124.89 272.19 131.47ZM188.51 218.74C187.56 227.35 186.87 235.84 186.36 244.26C176.28 234.79 166.92 225.01 158.43 215.27C168.88 207.67 180.12 200.15 192.04 192.96C190.7 201.42 189.43 210.05 188.51 218.74ZM88.73 313.13C82.57 299.64 95.16 273.92 120.81 247.69C127.03 241.27 134.11 234.89 141.53 228.57C154.31 243.26 169.01 257.96 185.5 272.41C185.47 293.74 186.85 313.97 189.52 332.84C179.48 333.9 169.77 334.53 160.56 334.63C123.08 335 94.9 326.62 88.73 313.13ZM221.62 377.7C218.91 369.21 216.63 360.02 214.62 350.52C233.97 347.25 254.5 342.36 275.49 335.95C294.79 346.75 313.86 355.91 332.2 363.22C315.05 401.54 294.3 427.33 275.76 435.17C271.71 436.78 267.97 437.44 264.63 437.11C249.45 435.54 232.53 412.25 221.62 377.7ZM462.85 352.87C460.88 355.54 457.72 357.7 453.62 359.43C435.17 367.24 401.33 364.63 360.46 351.06C367.16 333.16 373.08 313.53 377.67 292.63C396.86 282.04 414.48 270.8 430.02 259.2C436.04 267.01 441.45 274.67 446.09 282.24C465.28 313.29 471.78 340.99 462.85 352.87ZM433.48 229.55C420.7 214.86 406.01 200.16 389.51 185.71C389.54 164.37 388.16 144.14 385.49 125.28C395.53 124.21 405.25 123.59 414.54 123.45C452.02 123.08 480.2 131.46 486.37 144.94C492.45 158.47 479.86 184.2 454.2 210.43C447.99 216.85 440.91 223.23 433.48 229.55Z" id="b4vn8YF5B"></path><path d="M107.13 132.39L107.13 132.39L107.13 132.39L107.13 132.39Z" id="a11HCRCKFB"></path><path d="M262.48 194.63C241.36 206.71 234.43 233.01 247.01 253.37C259.58 273.74 286.9 280.45 308.02 268.37C329.14 256.29 336.06 229.99 323.49 209.63C310.91 189.26 283.59 182.55 262.48 194.63Z" id="earb7ShSv"></path><path d="M235.75 51.76L235.75 51.76L235.75 51.76L235.75 51.76Z" id="a5QUvnNczA"></path><path d="M425.94 222.47L423.71 219.12L425.94 222.47Z" id="fs0DZWtF4"></path><path d="M334.63 211.33L332.4 207.99L334.63 211.33Z" id="a405462I02"></path><path d="M442.64 245.85L440.41 242.51L442.64 245.85Z" id="g8hVVRkX"></path><path d="M334.26 247.33L333.88 246.59L334.26 247.33Z" id="gdaE2YgmO"></path><path d="M407.01 274.8L403.67 277.03L407.01 274.8Z" id="e1J2hLAqRJ"></path><path d="M388.08 284.83L385.85 280.37L388.08 284.83Z" id="b1hbgDN6uq"></path><path d="M425.2 291.14L424.45 290.76L425.2 291.14Z" id="a3MRphaZLL"></path><path d="M446.73 294.1L446.35 293.36L446.73 294.1Z" id="c10Mhg9qQ0"></path><path d="M350.22 489.72C350.22 418.23 350.22 378.51 350.22 370.57C350.22 356.18 345.7 332.75 351.04 319.39C357.78 302.54 376.02 311.54 385.85 318.23C384.31 295.26 360.62 301.89 349.1 311.55C347.44 295.42 320.06 284.71 314.58 303.76C309.7 298.54 311.25 266.77 311.24 260.05C311.21 242.6 313.96 232.04 296.06 220.8C285.76 214.32 278.9 218.89 275.11 230.96C270.59 245.37 270.83 261.12 271.01 275.92C271.6 325.9 266.01 379.77 271.35 429.59C272.56 440.89 276.06 451.93 281.52 461.88C287.36 472.5 293.42 477.11 293.42 489.72C301 489.72 319.93 489.72 350.22 489.72Z" id="cojvfpQnr"></path><path d="M358.38 295.59L357.64 295.22L358.38 295.59Z" id="dK6bqO1lS"></path><path d="M447.84 296.33L447.47 295.59L447.84 296.33Z" id="ke7o1flhp"></path><path d="M412.95 296.7L412.21 296.33L412.95 296.7Z" id="a83239Xykg"></path><path d="M351.7 297.82L350.96 297.45L351.7 297.82Z" id="j2rvub5R8r"></path><path d="M410.72 297.82L409.98 297.45L410.72 297.82Z" id="i25sBWKygI"></path><path d="M400.7 302.27L399.96 301.9L400.7 302.27Z" id="b2dUJLsZ0L"></path><path d="M398.47 303.38L397.73 303.01L398.47 303.38Z" id="a9hwWXwfCv"></path><path d="M387.33 307.84L386.59 307.47L387.33 307.84Z" id="b1gAaQoubO"></path><path d="M417.11 493.06L417.11 491.92L405.82 491.92L405.82 477.04L404.69 477.04L404.69 491.92L374.19 491.92C374.19 491.23 374.19 490.85 374.19 490.77C382.85 489.46 391.07 484.72 397.91 479.31C404.82 473.85 413.96 466.3 418.44 458.58C432.23 434.86 425.02 398.95 425.02 372.9C425.02 359.77 429.66 335.44 423.69 323.7C416.32 309.22 396.65 313.12 387.33 321.71C383.03 307.02 352.75 301.46 348.9 322.3C345.62 340.12 349.34 357.04 349.34 375.19C349.34 382.97 349.34 421.88 349.34 491.92L417.11 493.06Z" id="d2hxf6uIeJ"></path><path d="M388.08 324.91C400.9 316.47 416.15 312.69 424.83 329.37C429.25 316.88 411.75 307.68 401.44 310.09C395.03 311.58 391.44 316.57 385.85 319.35C386.3 320.46 387.85 324.36 388.08 324.91Z" id="c7xDG61wH"></path><path d="M389.19 319.35L386.96 314.89L389.19 319.35Z" id="dN5LeNe97"></path><path d="M272.45 407.21C272.38 402.87 271.8 368.13 271.72 363.79C271.64 358.62 273.11 345.61 260.38 347.17C246.76 348.83 255.53 361.99 255.9 367.4C257.29 387.4 262.35 408.27 271.2 427.28C274.58 421.41 272.56 413.47 272.45 407.21Z" id="b1LGw12UK3"></path><path d="M374.71 489.72L405.89 489.72C411.83 472.35 415.17 462.7 415.92 460.77C400.68 468.48 392.97 484.27 374.71 488.61C374.71 488.76 374.71 489.13 374.71 489.72Z" id="aTEtbi0v8"></path><path d="M286.37 470.05L286 469.31L286.37 470.05Z" id="d12fMJOFgo"></path><path d="M292.31 487.95L280.06 487.95L280.06 524.24L349.1 524.24L349.1 491.47L418.14 492.64C418.14 489.83 418.14 488.27 418.14 487.95C402.33 491.91 384.07 488.74 368.03 488C343.27 486.86 318.22 487.95 293.42 487.95C293.35 487.02 289.36 487.02 281.45 487.95L292.31 487.95Z" id="adzok04oM"></path><path d="M271.52 471.53L270.78 471.16L271.52 471.53Z" id="cca3mNWfh"></path><path d="M409.98 472.27L409.61 471.53L409.98 472.27Z" id="aKaxJ0led"></path><path d="M269.3 472.65L268.56 472.27L269.3 472.65Z" id="eBV5YS9q"></path><path d="M290.83 475.62L290.45 474.87L290.83 475.62Z" id="f7533qPBd"></path><path d="M349.1 524.24L419.26 524.24L418.09 492.7L400.02 490.61L349.1 490.61L349.1 524.24Z" id="c7PEA4Xpx"></path><path d="M396.99 516.45C396.76 516.56 394.98 517.45 394.76 517.56C404.62 521.69 418.07 510.04 407.96 501.34C404.27 498.16 399.3 498.63 394.76 498.63C393.58 505.59 388.7 511.73 396.99 516.45Z" id="a25wvzh0r6"></path><path d="M396.99 516.45C390.6 510.95 392.24 506.41 395.87 499.74C386.41 502.49 387.22 516.02 396.99 517.56C396.99 517.34 396.99 516.56 396.99 516.45Z" id="aEv7CvYbS"></path><path d="M409.24 501.97L408.12 500.86L409.24 501.97Z" id="a3OE9EtX9A"></path><path d="M388.08 510.88L389.19 510.88L388.08 505.31L388.08 510.88Z" id="a2hHOe4HR3"></path><path d="M390.3 514.22L389.19 513.11L390.3 514.22Z" id="bq6gUmJEF"></path><path d="M405.15 518.3L404.41 517.93L405.15 518.3Z" id="a36LAcYoUc"></path><path d="M267.81 633.92C293.93 638.73 322.52 640.48 348.78 637.18C348.78 630 348.92 593.8 349.21 528.59L431.73 528.59L431.73 524.1L267.81 524.1C267.81 589.9 267.81 626.51 267.81 633.92Z" id="bkb0nCEco"></path><path d="M348.1 637.63L355.29 634.2C354.79 634.42 354.33 634.62 353.88 634.82C350.12 636.5 348.23 636.8 348.23 636.87C368.56 636.46 387.52 632.85 405.42 627.49C414.44 624.79 421.9 621.04 431.73 618.83C431.73 612.74 431.73 582.7 431.73 528.7L348.23 528.7L348.1 637.63Z" id="b1dpJFfpec"></path><path d="M380.65 631.89L379.91 631.51L380.65 631.89Z" id="d5GJ4WGvt"></path><path d="M352.81 636.34L352.07 635.97L352.81 636.34Z" id="a2h5qAsIJ7"></path></defs><g><g><g><use xlink:href="#c1sofl9wN" opacity="1" fill="#0085ca" fill-opacity="1"></use></g><g><use xlink:href="#b4vn8YF5B" opacity="1" fill="#ffffff" fill-opacity="1"></use><g><use xlink:href="#b4vn8YF5B" opacity="1" fill-opacity="0" stroke="#000000" stroke-width="1" stroke-opacity="0"></use></g></g><g><use xlink:href="#a11HCRCKFB" opacity="1" fill="#61dafb" fill-opacity="1"></use><g><use xlink:href="#a11HCRCKFB" opacity="1" fill-opacity="0" stroke="#000000" stroke-width="1" stroke-opacity="0"></use></g></g><g><use xlink:href="#earb7ShSv" opacity="1" fill="#ffffff" fill-opacity="1"></use><g><use xlink:href="#earb7ShSv" opacity="1" fill-opacity="0" stroke="#000000" stroke-width="1" stroke-opacity="0"></use></g></g><g><use xlink:href="#a5QUvnNczA" opacity="1" fill="#61dafb" fill-opacity="1"></use><g><use xlink:href="#a5QUvnNczA" opacity="1" fill-opacity="0" stroke="#000000" stroke-width="1" stroke-opacity="0"></use></g></g><g><g><use xlink:href="#fs0DZWtF4" opacity="1" fill="#befcff" fill-opacity="1"></use><g><use xlink:href="#fs0DZWtF4" opacity="1" fill-opacity="0" stroke="#000000" stroke-width="1" stroke-opacity="0"></use></g></g><g><use xlink:href="#a405462I02" opacity="1" fill="#80e5f9" fill-opacity="1"></use><g><use xlink:href="#a405462I02" opacity="1" fill-opacity="0" stroke="#000000" stroke-width="1" stroke-opacity="0"></use></g></g><g><use xlink:href="#g8hVVRkX" opacity="1" fill="#aeffff" fill-opacity="1"></use><g><use xlink:href="#g8hVVRkX" opacity="1" fill-opacity="0" stroke="#000000" stroke-width="1" stroke-opacity="0"></use></g></g><g><use xlink:href="#gdaE2YgmO" opacity="1" fill="#83e4f7" fill-opacity="1"></use><g><use xlink:href="#gdaE2YgmO" opacity="1" fill-opacity="0" stroke="#000000" stroke-width="1" stroke-opacity="0"></use></g></g><g><use xlink:href="#e1J2hLAqRJ" opacity="1" fill="#bbf7ff" fill-opacity="1"></use><g><use xlink:href="#e1J2hLAqRJ" opacity="1" fill-opacity="0" stroke="#000000" stroke-width="1" stroke-opacity="0"></use></g></g><g><use xlink:href="#b1hbgDN6uq" opacity="1" fill="#baf4ff" fill-opacity="1"></use><g><use xlink:href="#b1hbgDN6uq" opacity="1" fill-opacity="0" stroke="#000000" stroke-width="1" stroke-opacity="0"></use></g></g><g><use xlink:href="#a3MRphaZLL" opacity="1" fill="#62e4fc" fill-opacity="1"></use><g><use xlink:href="#a3MRphaZLL" opacity="1" fill-opacity="0" stroke="#000000" stroke-width="1" stroke-opacity="0"></use></g></g><g><use xlink:href="#c10Mhg9qQ0" opacity="1" fill="#7ae3f8" fill-opacity="1"></use><g><use xlink:href="#c10Mhg9qQ0" opacity="1" fill-opacity="0" stroke="#000000" stroke-width="1" stroke-opacity="0"></use></g></g><g><use xlink:href="#cojvfpQnr" opacity="1" fill="#f5caaa" fill-opacity="1"></use><g><use xlink:href="#cojvfpQnr" opacity="1" fill-opacity="0" stroke="#000000" stroke-width="1" stroke-opacity="0"></use></g></g><g><use xlink:href="#dK6bqO1lS" opacity="1" fill="#82e7fb" fill-opacity="1"></use><g><use xlink:href="#dK6bqO1lS" opacity="1" fill-opacity="0" stroke="#000000" stroke-width="1" stroke-opacity="0"></use></g></g><g><use xlink:href="#ke7o1flhp" opacity="1" fill="#73edff" fill-opacity="1"></use><g><use xlink:href="#ke7o1flhp" opacity="1" fill-opacity="0" stroke="#000000" stroke-width="1" stroke-opacity="0"></use></g></g><g><use xlink:href="#a83239Xykg" opacity="1" fill="#82f1ff" fill-opacity="1"></use><g><use xlink:href="#a83239Xykg" opacity="1" fill-opacity="0" stroke="#000000" stroke-width="1" stroke-opacity="0"></use></g></g><g><use xlink:href="#j2rvub5R8r" opacity="1" fill="#6eebff" fill-opacity="1"></use><g><use xlink:href="#j2rvub5R8r" opacity="1" fill-opacity="0" stroke="#000000" stroke-width="1" stroke-opacity="0"></use></g></g><g><use xlink:href="#i25sBWKygI" opacity="1" fill="#74ecff" fill-opacity="1"></use><g><use xlink:href="#i25sBWKygI" opacity="1" fill-opacity="0" stroke="#000000" stroke-width="1" stroke-opacity="0"></use></g></g><g><use xlink:href="#b2dUJLsZ0L" opacity="1" fill="#8df0ff" fill-opacity="1"></use><g><use xlink:href="#b2dUJLsZ0L" opacity="1" fill-opacity="0" stroke="#000000" stroke-width="1" stroke-opacity="0"></use></g></g><g><use xlink:href="#a9hwWXwfCv" opacity="1" fill="#68e6ff" fill-opacity="1"></use><g><use xlink:href="#a9hwWXwfCv" opacity="1" fill-opacity="0" stroke="#000000" stroke-width="1" stroke-opacity="0"></use></g></g><g><use xlink:href="#b1gAaQoubO" opacity="1" fill="#9afaff" fill-opacity="1"></use><g><use xlink:href="#b1gAaQoubO" opacity="1" fill-opacity="0" stroke="#000000" stroke-width="1" stroke-opacity="0"></use></g></g><g><use xlink:href="#d2hxf6uIeJ" opacity="1" fill="#faeadd" fill-opacity="1"></use><g><use xlink:href="#d2hxf6uIeJ" opacity="1" fill-opacity="0" stroke="#000000" stroke-width="1" stroke-opacity="0"></use></g></g><g><use xlink:href="#c7xDG61wH" opacity="1" fill="#f5caaa" fill-opacity="1"></use><g><use xlink:href="#c7xDG61wH" opacity="1" fill-opacity="0" stroke="#000000" stroke-width="1" stroke-opacity="0"></use></g></g><g><use xlink:href="#dN5LeNe97" opacity="1" fill="#64b3b7" fill-opacity="1"></use><g><use xlink:href="#dN5LeNe97" opacity="1" fill-opacity="0" stroke="#000000" stroke-width="1" stroke-opacity="0"></use></g></g><g><use xlink:href="#b1LGw12UK3" opacity="1" fill="#d2a683" fill-opacity="1"></use><g><use xlink:href="#b1LGw12UK3" opacity="1" fill-opacity="0" stroke="#000000" stroke-width="1" stroke-opacity="0"></use></g></g><g><use xlink:href="#aTEtbi0v8" opacity="1" fill="#f5caaa" fill-opacity="1"></use><g><use xlink:href="#aTEtbi0v8" opacity="1" fill-opacity="0" stroke="#000000" stroke-width="1" stroke-opacity="0"></use></g></g><g><use xlink:href="#d12fMJOFgo" opacity="1" fill="#48beca" fill-opacity="1"></use><g><use xlink:href="#d12fMJOFgo" opacity="1" fill-opacity="0" stroke="#000000" stroke-width="1" stroke-opacity="0"></use></g></g><g><use xlink:href="#adzok04oM" opacity="1" fill="#ebeff0" fill-opacity="1"></use><g><use xlink:href="#adzok04oM" opacity="1" fill-opacity="0" stroke="#000000" stroke-width="1" stroke-opacity="0"></use></g></g><g><use xlink:href="#cca3mNWfh" opacity="1" fill="#6be5fc" fill-opacity="1"></use><g><use xlink:href="#cca3mNWfh" opacity="1" fill-opacity="0" stroke="#000000" stroke-width="1" stroke-opacity="0"></use></g></g><g><use xlink:href="#aKaxJ0led" opacity="1" fill="#48bec8" fill-opacity="1"></use><g><use xlink:href="#aKaxJ0led" opacity="1" fill-opacity="0" stroke="#000000" stroke-width="1" stroke-opacity="0"></use></g></g><g><use xlink:href="#eBV5YS9q" opacity="1" fill="#81ecff" fill-opacity="1"></use><g><use xlink:href="#eBV5YS9q" opacity="1" fill-opacity="0" stroke="#000000" stroke-width="1" stroke-opacity="0"></use></g></g><g><use xlink:href="#f7533qPBd" opacity="1" fill="#48beca" fill-opacity="1"></use><g><use xlink:href="#f7533qPBd" opacity="1" fill-opacity="0" stroke="#000000" stroke-width="1" stroke-opacity="0"></use></g></g><g><use xlink:href="#c7PEA4Xpx" opacity="1" fill="#fbfbfb" fill-opacity="1"></use><g><use xlink:href="#c7PEA4Xpx" opacity="1" fill-opacity="0" stroke="#000000" stroke-width="1" stroke-opacity="0"></use></g></g><g><use xlink:href="#a25wvzh0r6" opacity="1" fill="#5d4135" fill-opacity="1"></use><g><use xlink:href="#a25wvzh0r6" opacity="1" fill-opacity="0" stroke="#000000" stroke-width="1" stroke-opacity="0"></use></g></g><g><use xlink:href="#aEv7CvYbS" opacity="1" fill="#33221b" fill-opacity="1"></use><g><use xlink:href="#aEv7CvYbS" opacity="1" fill-opacity="0" stroke="#000000" stroke-width="1" stroke-opacity="0"></use></g></g><g><use xlink:href="#a3OE9EtX9A" opacity="1" fill="#a99c96" fill-opacity="1"></use><g><use xlink:href="#a3OE9EtX9A" opacity="1" fill-opacity="0" stroke="#000000" stroke-width="1" stroke-opacity="0"></use></g></g><g><use xlink:href="#a2hHOe4HR3" opacity="1" fill="#5e534d" fill-opacity="1"></use><g><use xlink:href="#a2hHOe4HR3" opacity="1" fill-opacity="0" stroke="#000000" stroke-width="1" stroke-opacity="0"></use></g></g><g><use xlink:href="#bq6gUmJEF" opacity="1" fill="#847a78" fill-opacity="1"></use><g><use xlink:href="#bq6gUmJEF" opacity="1" fill-opacity="0" stroke="#000000" stroke-width="1" stroke-opacity="0"></use></g></g><g><use xlink:href="#a36LAcYoUc" opacity="1" fill="#c9c5c4" fill-opacity="1"></use><g><use xlink:href="#a36LAcYoUc" opacity="1" fill-opacity="0" stroke="#000000" stroke-width="1" stroke-opacity="0"></use></g></g><g><use xlink:href="#bkb0nCEco" opacity="1" fill="#192533" fill-opacity="1"></use><g><use xlink:href="#bkb0nCEco" opacity="1" fill-opacity="0" stroke="#000000" stroke-width="1" stroke-opacity="0"></use></g></g><g><use xlink:href="#b1dpJFfpec" opacity="1" fill="#36485e" fill-opacity="1"></use><g><use xlink:href="#b1dpJFfpec" opacity="1" fill-opacity="0" stroke="#000000" stroke-width="1" stroke-opacity="0"></use></g></g><g><use xlink:href="#d5GJ4WGvt" opacity="1" fill="#809694" fill-opacity="1"></use><g><use xlink:href="#d5GJ4WGvt" opacity="1" fill-opacity="0" stroke="#000000" stroke-width="1" stroke-opacity="0"></use></g></g><g><use xlink:href="#a2h5qAsIJ7" opacity="1" fill="#8ab3b5" fill-opacity="1"></use><g><use xlink:href="#a2h5qAsIJ7" opacity="1" fill-opacity="0" stroke="#000000" stroke-width="1" stroke-opacity="0"></use></g></g></g></g></g></svg>